inDegrees=no
num_controls=7
num_derivatives=13
num_iterations=152
num_multipliers=7
num_parameters=0
num_slacks=7
num_states=26
objective=6.258474
objective_accelerations=0.726356
objective_balance=0.062252
objective_effort=0.595724
objective_height=4.803938
objective_ligament=0.070205
solver_duration=1669.962265
status=Solve_Succeeded
success=true
DataType=double
version=3
OpenSimVersion=4.4-2022-07-23-0e9fedc
endheader
time	/jointset/ground_pelvis/pelvis_tilt/value	/jointset/ground_pelvis/pelvis_tx/value	/jointset/ground_pelvis/pelvis_ty/value	/jointset/hip_l/hip_flexion_l/value	/jointset/hip_l/hip_adduction_l/value	/jointset/hip_l/hip_rotation_l/value	/jointset/back/lumbar_extension/value	/jointset/patellofemoral_l/patellar_flexion_l/value	/jointset/knee_l/knee_flexion_l/value	/jointset/knee_l/knee_adduction_l/value	/jointset/knee_l/knee_rotation_l/value	/jointset/ankle_l/ankle_angle_l/value	/jointset/subtalar_l/subtalar_angle_l/value	/jointset/ground_pelvis/pelvis_tilt/speed	/jointset/ground_pelvis/pelvis_tx/speed	/jointset/ground_pelvis/pelvis_ty/speed	/jointset/hip_l/hip_flexion_l/speed	/jointset/hip_l/hip_adduction_l/speed	/jointset/hip_l/hip_rotation_l/speed	/jointset/back/lumbar_extension/speed	/jointset/patellofemoral_l/patellar_flexion_l/speed	/jointset/knee_l/knee_flexion_l/speed	/jointset/knee_l/knee_adduction_l/speed	/jointset/knee_l/knee_rotation_l/speed	/jointset/ankle_l/ankle_angle_l/speed	/jointset/subtalar_l/subtalar_angle_l/speed	/forceset/tau_hip_flexion_l	/forceset/tau_hip_adduction_l	/forceset/tau_hip_rotation_l	/forceset/tau_knee_flexion_l	/forceset/tau_ankle_angle_l	/forceset/tau_subtalar_angle_l	/forceset/tau_lumbar_extension	lambda_cid13_p0	lambda_cid13_p1	lambda_cid13_p2	lambda_cid13_p3	lambda_cid13_p4	lambda_cid13_p5	lambda_cid14_p0	/jointset/ground_pelvis/pelvis_tilt/accel	/jointset/ground_pelvis/pelvis_tx/accel	/jointset/ground_pelvis/pelvis_ty/accel	/jointset/hip_l/hip_flexion_l/accel	/jointset/hip_l/hip_adduction_l/accel	/jointset/hip_l/hip_rotation_l/accel	/jointset/back/lumbar_extension/accel	/jointset/patellofemoral_l/patellar_flexion_l/accel	/jointset/knee_l/knee_flexion_l/accel	/jointset/knee_l/knee_adduction_l/accel	/jointset/knee_l/knee_rotation_l/accel	/jointset/ankle_l/ankle_angle_l/accel	/jointset/subtalar_l/subtalar_angle_l/accel	gamma_cid13_p0	gamma_cid13_p1	gamma_cid13_p2	gamma_cid13_p3	gamma_cid13_p4	gamma_cid13_p5	gamma_cid14_p0
0.5	-0.1657260188430912	-0.06857011781513556	0.7758308168470172	1.099501572237243	-0.3237433988945803	-0.06837415507302656	-0.8065749307734578	0.9873155316891811	0.9873155316891624	-0.07867589117610277	-0.1743894520597787	0.12273957827289	0.01042936077588357	-0.3042211970087284	-0.1931124927368351	-0.530936464750149	2.039464970859787	-0.007193483526437103	0.5680705624522369	-0.8218461111252591	1.961906520502725	1.961906520502693	0.2236751474758551	0.0002469138756059435	0.3588555969633936	0.1128534258719872	-0.3201050997564683	0.02195426138985611	-0.007070700148687033	-0.2383194699171478	0.1117155325558798	0.04302136403322679	0.355294752950118	-8.096110141856158	-17.85909800778225	3.069687212094215	-14.11124499626801	-699.0533372633788	-66.45269641586664	-7.01962687496733	0.5181751744311636	0.8622271413295091	-0.2684858032258142	-1.703850467950348	0.3512357927921808	-0.6151015813186822	2.072504627875472	-1.433363746219579	-1.433363746219617	-0.1430638406332088	-0.007873542949579317	-0.3276838527572175	0.3294098680409968	-4.056994337229098e-07	-2.301291863528865e-07	2.448611590093883e-06	2.591936918848194e-07	-4.423514319026608e-07	3.434644105612197e-07	-3.517078917734806e-07
0.51	-0.1687417565067383	-0.07045808773997923	0.770509238718573	1.119807818135202	-0.3237990842415998	-0.06272254832576619	-0.8146891235557633	1.006859807140067	1.006859807139978	-0.0764503200005766	-0.1743874437868682	0.126310586068413	0.01157248421839634	-0.2988816430723534	-0.184479682178624	-0.533257708784714	2.02150657171006	-0.003956949129804757	0.5621907905828275	-0.8009129161771615	1.946666508294664	1.946666508294651	0.2214221277925477	0.0001511096091983791	0.355277915159075	0.1157365641243925	-0.3280578904069034	0.02179802844122386	-0.007144861763717696	-0.2421006444177017	0.1116187420943118	0.04288239848681138	0.3627082113571942	-8.47107683136778	-17.63208575485076	2.918121502611229	-14.03787558137403	-704.8188152631894	-66.17501902425545	-6.268294320650541	0.5485118754611746	0.8641322799707838	-0.1958125123356991	-1.883530799240022	0.3075373790951381	-0.5837454795301276	2.115656302491343	-1.611559603088299	-1.611559603085459	-0.2689819328223201	-0.01047921567347239	-0.3830114017247629	0.262303328639592	-3.903754269001209e-07	-1.699111667500365e-07	2.431463637573388e-06	2.617307591203559e-07	-4.199637744070178e-07	4.070136103505142e-07	-3.425072707594564e-07
0.52	-0.1717027653566067	-0.07225966470586162	0.7651680743880307	1.139926140809462	-0.3238228692214541	-0.0571316053952251	-0.8225915985137542	1.026243234539812	1.026243234539799	-0.07424779120188253	-0.1743864026260317	0.129843776834398	0.01274334654839247	-0.2932754342470192	-0.1758339009445838	-0.5348537051699008	2.001880326130081	-0.0008134100932493496	0.5559377991222721	-0.7795025462603897	1.929736910287034	1.92973691028704	0.2190666720834941	5.349145533283976e-05	0.3512921910565286	0.1184012033687709	-0.3360106810575244	0.0216417954924107	-0.007219023377094986	-0.2458818189182831	0.1115219516327136	0.04274343294016788	0.3701216697641334	-8.84621019901795	-17.40916603058995	2.771918436934758	-14.03055476323392	-710.6206194501655	-65.97197257972485	-5.560113966433873	0.5715061522237392	0.8648212764948799	-0.1234362733502791	-2.037419754000591	0.3326367207769596	-0.6897454995479881	2.167939621610622	-1.771280906133248	-1.771280906133273	-0.1635510457823727	-0.008236320441409184	-0.4092923124034221	0.2857100664353276	-3.720090960637477e-07	-1.290152086655937e-07	2.377773624764316e-06	2.575478967145391e-07	-3.933066079874139e-07	4.624223110416874e-07	-3.318051669346973e-07
0.53	-0.1746063773930815	-0.07397482190482908	0.7598145785923573	1.159840064786894	-0.323815619228659	-0.05160500071391829	-0.8302776708879233	1.045449181804681	1.045449181804646	-0.07206916336361106	-0.1743863436139561	0.133335188701916	0.01393985694344833	-0.2873989787943053	-0.1672054330096979	-0.5357232595390944	1.980636286476619	0.002247131694838217	0.5493256278324915	-0.7576438616395915	1.911189281258021	1.91118928125803	0.2166446206913052	-4.683828595491822e-05	0.3469294552699545	0.1208643055402087	-0.3440067787196451	0.021495674551431	-0.007222258313381862	-0.2493183882922189	0.1106898015163792	0.0424842540226836	0.3774390816363615	-9.462753233137741	-17.09204816275086	2.611014842643966	-13.70792746280313	-716.3292450673545	-65.62776053759953	-4.89604449832246	0.6028799371219159	0.8607264967492042	-0.05046171614597677	-2.208169846260482	0.2900075928311526	-0.6558842138702079	2.205042922747055	-1.935927878507625	-1.935927878507183	-0.2836897866762326	-0.01122359255451344	-0.4588634358409741	0.2208662922583258	-3.49323788836861e-07	-5.813484291734719e-08	2.330898544024562e-06	2.565184437936286e-07	-3.641476695281936e-07	5.18584881882594e-07	-3.166652402477576e-07
0.54	-0.1774497919359891	-0.07560392103549678	0.7544560379135041	1.179533493612702	-0.3237783148809809	-0.04614630399954343	-0.8377431144078065	1.064461767983805	1.064461767983798	-0.06991518755941642	-0.1743873463575712	0.1367811533667592	0.01515984956017006	-0.2812359355284287	-0.1586222872846301	-0.535862681806014	1.957781295813469	0.005197460883187357	0.5423562057356464	-0.7353767754013962	1.89106469314011	1.891064693140123	0.2141362652695619	-0.0001588596905054836	0.3422027505211158	0.123097647702071	-0.3520028763818895	0.02134955361046423	-0.007225493249878038	-0.252754957666166	0.109857651400067	0.04222507510520835	0.3847564935084739	-10.08024623478042	-16.77872681705861	2.455245147663805	-13.44662649973041	-722.0813459641176	-65.35527065827844	-4.276985830840976	0.6288237148568396	0.8557568345307806	0.02259014710437474	-2.359609955937992	0.3105942008292844	-0.7611956609610004	2.249619945090269	-2.086672723912486	-2.086672723912586	-0.1808118516931689	-0.01057465309404403	-0.4820861048569974	0.239758064520024	-3.218600396460019e-07	4.591976109723557e-08	2.291563388127458e-06	2.589778694517632e-07	-3.322208130676957e-07	5.755815218253336e-07	-2.966153818835118e-07
0.55	-0.1802303286903138	-0.07714747095082772	0.7490997714975827	1.198990556096403	-0.3237118937505155	-0.04075893760442596	-0.8449839541981551	1.083265323240395	1.083265323240328	-0.06778654746280514	-0.1743892946086025	0.1401781588344766	0.01640123852067336	-0.2748363297813394	-0.1501003640914023	-0.5352651407376023	1.933370495638516	0.008068351656536537	0.5350539149224038	-0.7127407464020176	1.869384023412784	1.869384023412775	0.2115805087249227	-0.0002377673131655381	0.3371442046925504	0.125142429696743	-0.3594801333035237	0.02098279898382313	-0.007150777683497017	-0.2566256860764896	0.1094517578672266	0.04175812721733823	0.3916161462679212	-10.56654422688283	-16.38979672671496	2.277886145029932	-13.17919812684255	-727.7292234109605	-65.00755692453222	-3.702929254735969	0.6507619741844727	0.8485618779932321	0.09709222131176456	-2.520961441867945	0.2722509821383331	-0.7244814100013964	2.27815981763289	-2.248057175485566	-2.248057175488722	-0.2946353414569338	-0.007129951839733017	-0.5258383264700134	0.1808977512056685	-2.959775006749996e-07	1.140815616517846e-07	2.22069590702476e-06	2.544101547531374e-07	-3.015212337491444e-07	6.168113466459116e-07	-2.782436794575502e-07
0.5600000000000001	-0.1829458227932955	-0.07860617127097308	0.7437532317192661	1.21819568129957	-0.3236173808190246	-0.03544654124114781	-0.8519969206104653	1.101844213184007	1.101844213183974	-0.06568380048866833	-0.17439214816282	0.1435229589429838	0.01766188719797555	-0.2682274052521552	-0.1416523682475088	-0.5339173542851304	1.907393839719795	0.01081582109196187	0.5273621993693248	-0.6898020997917022	1.846131630551737	1.846131630551708	0.2089576407559496	-0.0003399203353040521	0.3317616786794348	0.1269495910620208	-0.3669573902253357	0.02061604435709108	-0.007076062115826224	-0.260496414486811	0.1090458643343913	0.04129117932935867	0.3984757990272143	-11.05546564741156	-16.00369383853106	2.104733991055383	-12.96680806410841	-733.4409221181551	-64.72605305169448	-3.1730206220218	0.6706874712763614	0.8409713646634827	0.1726392239163345	-2.672781104691778	0.2859099332447521	-0.8390806089282248	2.310143467277798	-2.40101735065645	-2.401017350656429	-0.1942341365598665	-0.01522373298973535	-0.5468821417676388	0.1922339386410221	-2.719924139678254e-07	1.391719980542945e-07	2.111989635675353e-06	2.414098716263994e-07	-2.72294387000929e-07	6.391209933198965e-07	-2.618857641575299e-07
0.5700000000000001	-0.185594208369132	-0.0799808554779271	0.7384238900836678	1.237133449057362	-0.3234959243271526	-0.03021274253559818	-0.8587790708937967	1.120182993708262	1.120182993708197	-0.06360761913655595	-0.1743959704355866	0.1468124328668628	0.01893953734741966	-0.2614142774592988	-0.1333060668353576	-0.531827902421985	1.879912539819569	0.01345334440273552	0.5193727442302958	-0.6665892023529716	1.821382357659967	1.821382357659979	0.2062361570587256	-0.0004157815073002758	0.326085490359917	0.1285389180986178	-0.3743190848584569	0.02019945125408975	-0.006923882269701691	-0.2639969629861229	0.1079323484675417	0.04078641149663895	0.4050877583070777	-11.76307845043798	-15.56577588232487	1.92663326706792	-12.45834421307122	-738.8828290851573	-64.38429174991262	-2.686545196706787	0.6919145527950098	0.8282672858282102	0.2455075767168357	-2.822915104037343	0.249056086143869	-0.7828229648554248	2.332676060675816	-2.54814922784861	-2.548149227842572	-0.3174682135497229	-0.002031382652473427	-0.585106464238797	0.1357880760729681	-2.187338502919306e-07	5.7471560348313e-08	1.669866576897854e-06	1.772554826841003e-07	-2.187365459346804e-07	5.298379595712025e-07	-2.174900206511879e-07
0.58	-0.1881734048431741	-0.08127271511949401	0.7331191248485424	1.255788981681822	-0.3233488160909635	-0.02505962738108443	-0.8653279295670472	1.138267028109728	1.138267028109658	-0.06155992516690146	-0.1744002041347313	0.1500437210501095	0.02023178196520956	-0.2543895848861821	-0.1250874551700786	-0.5290020741906963	1.850946813065334	0.01594616995952337	0.5112254891526906	-0.6431437777739514	1.795182405991743	1.795182405991795	0.2032601642716723	-0.0004222056132004628	0.3201245305526025	0.1298684847313868	-0.3816807794917086	0.01978285815111872	-0.006771702424845176	-0.267497511485447	0.1068188326007341	0.04028164366398347	0.4116997175868146	-12.47460454375191	-15.13041766391288	1.752648910928961	-11.99593402028032	-744.4014687084006	-64.10522470547853	-2.242936906416992	0.7130004273288693	0.8154334152886504	0.3199144975448842	-2.969666475493467	0.2569703824476405	-0.8706405966433763	2.356648895335898	-2.691153105947248	-2.69115310594725	-0.2451359545256495	-0.001336319770396325	-0.6038364393275382	0.140281857875321	-1.273516887032858e-07	-1.633053645687201e-07	7.935263065861185e-07	4.648179314479496e-08	-1.334918285472742e-07	2.491784117836796e-07	-1.365798962249872e-07
0.59	-0.1906814182304229	-0.08248308275459243	0.7278462940572555	1.274147649034452	-0.3231771362341307	-0.01999109974404495	-0.8716413063683713	1.156081917648069	1.156081917648032	-0.05954065865970935	-0.1744049004709046	0.1532141735091442	0.02153653999392227	-0.2471847367904074	-0.1170120201615435	-0.5254405084929179	1.820544077823294	0.01836348028870569	0.5024592227178319	-0.6195126471873744	1.767558456543783	1.767558456543815	0.2005439529032273	-0.0005048265722352895	0.3139257058960204	0.1310382549317977	-0.3885494997321131	0.01929471868704944	-0.006566911484063428	-0.2711533552708895	0.1058545227923214	0.039601324687336	0.4178302039980586	-13.13347391359555	-14.62162135470818	1.559626934833018	-11.47455520973145	-749.6637301934185	-63.73002680964818	-1.841699024661185	0.7284702285902519	0.7997002692730296	0.3927972316236334	-3.111975257018248	0.2301499384728816	-0.8828231919479514	2.369185436084938	-2.833554798635086	-2.833554798638408	-0.2922991577209226	-0.009829324195483128	-0.6339556002276331	0.09860866849454303	-6.521328312609788e-08	-2.863143612324032e-07	2.274548165888617e-07	-3.636229464166581e-08	-7.427576136923643e-08	6.710813539406435e-08	-8.104830571720043e-08
